HIERARCHY
ROOT root
{
	OFFSET	0	13.1	24.9
	CHANNELS 6  Xposition Yposition Zposition Xrotation Yrotation Zrotation
	JOINT spine_1
	{
		OFFSET	0	9.99999	0
		CHANNELS 3  Xrotation Yrotation Zrotation
		JOINT spine_2
		{
			OFFSET	0	112	-10
			CHANNELS 3  Xrotation Yrotation Zrotation
			JOINT spine_3
			{
				OFFSET	0	206.5	19.3
				CHANNELS 3  Xrotation Yrotation Zrotation
				JOINT spine_4
				{
					OFFSET	0	110.4	14.6
					CHANNELS 3  Xrotation Yrotation Zrotation
					JOINT neck_1
					{
						OFFSET	0	71.8	-50.3
						CHANNELS 3  Xrotation Yrotation Zrotation
						JOINT neck_2
						{
							OFFSET	0	86.2	-25.8
							CHANNELS 3  Xrotation Yrotation Zrotation
							JOINT head_ee
							{
								OFFSET	0	179.8	-8.7
								CHANNELS 3  Xrotation Yrotation Zrotation
								End Site
								{
									OFFSET	1	0	0
								}
							}
						}
					}
					JOINT left_clavicle
					{
						OFFSET	-43.2	22.4	-70.8
						CHANNELS 3  Xrotation Yrotation Zrotation
						JOINT left_shoulder
						{
							OFFSET	-93.9	-5.79999	48.7
							CHANNELS 3  Xrotation Yrotation Zrotation
							JOINT left_elbow
							{
								OFFSET	-291.4	-30.8	15.2
								CHANNELS 3  Xrotation Yrotation Zrotation
								JOINT left_lowarm_twist
								{
									OFFSET	-110.7	-3.89999	13.6
									CHANNELS 3  Xrotation Yrotation Zrotation
									JOINT left_hand
									{
										OFFSET	-110.7	-3.89999	13.6
										CHANNELS 3  Xrotation Yrotation Zrotation
										JOINT left_ee
										{
											OFFSET	-80.8	-5.10001	12.1
											CHANNELS 3  Xrotation Yrotation Zrotation
											End Site
											{
												OFFSET	1	0	0
											}
										}
									}
								}
							}
						}
					}
					JOINT right_clavicle
					{
						OFFSET	43.2	22.4	-70.8
						CHANNELS 3  Xrotation Yrotation Zrotation
						JOINT right_shoulder
						{
							OFFSET	93.9	-5.79999	48.7
							CHANNELS 3  Xrotation Yrotation Zrotation
							JOINT right_elbow
							{
								OFFSET	291.4	-30.8	15.2
								CHANNELS 3  Xrotation Yrotation Zrotation
								JOINT right_lowarm_twist
								{
									OFFSET	110.7	-3.89999	13.6
									CHANNELS 3  Xrotation Yrotation Zrotation
									JOINT right_hand
									{
										OFFSET	110.7	-3.89999	13.6
										CHANNELS 3  Xrotation Yrotation Zrotation
										JOINT right_ee
										{
											OFFSET	80.8	-5.10001	12.1
											CHANNELS 3  Xrotation Yrotation Zrotation
											End Site
											{
												OFFSET	1	0	0
											}
										}
									}
								}
							}
						}
					}
				}
			}
		}
	}
	JOINT left_hip
	{
		OFFSET	-82.8	-127.5	0.300001
		CHANNELS 3  Xrotation Yrotation Zrotation
		JOINT left_knee
		{
			OFFSET	-28.2	-396.7	2.2
			CHANNELS 3  Xrotation Yrotation Zrotation
			JOINT left_ankle
			{
				OFFSET	-11.7	-411.3	35.4
				CHANNELS 3  Xrotation Yrotation Zrotation
				JOINT left_toes
				{
					OFFSET	0	-60	-88.6
					CHANNELS 3  Xrotation Yrotation Zrotation
					JOINT left_foot_ee
					{
						OFFSET	-22.5	-16.5	-42.2
						CHANNELS 3  Xrotation Yrotation Zrotation
						End Site
						{
							OFFSET	1	0	0
						}
					}
				}
			}
		}
	}
	JOINT right_hip
	{
		OFFSET	82.8	-127.5	0.300001
		CHANNELS 3  Xrotation Yrotation Zrotation
		JOINT right_knee
		{
			OFFSET	28.2	-396.7	2.2
			CHANNELS 3  Xrotation Yrotation Zrotation
			JOINT right_ankle
			{
				OFFSET	11.7	-411.3	35.4
				CHANNELS 3  Xrotation Yrotation Zrotation
				JOINT right_toes
				{
					OFFSET	0	-60	-88.6
					CHANNELS 3  Xrotation Yrotation Zrotation
					JOINT right_foot_ee
					{
						OFFSET	22.5	-16.5	-42.2
						CHANNELS 3  Xrotation Yrotation Zrotation
						End Site
						{
							OFFSET	1	0	0
						}
					}
				}
			}
		}
	}
}
MOTION
Frames: 12
Frame Time: 0.02
1372.05 701.618 -1475.22 2.66587000542 64.2106542706 -1.98669004301 -1.57234 -0.203975 -0.729443 -1.57205 -0.157147 -0.740944 -1.5697 0.0228359 -0.75708 -1.57048 -0.097014 -0.751186 -12.6793 11.4123 6.74953 -12.7378 17.4469 9.797 -0.0 0.0 -0.0 2.87069 7.96577 6.02742 16.6824 -15.7084 60.2983 2.40444 -49.9767 1.12074 -85.1981 -8.47668 5.17967 -9.262 30.583 -41.3852 -0.0 0.0 -0.0 5.96082 25.921 -9.96366 -25.8783 22.8855 -62.1877 0.534011 14.8174 -0.069439 26.9731 -0.149947 3.41067 0.417975 -28.8912 -13.6175 0.0 0.0 0.0 -19.3156 12.5712 13.9468 -10.2544 0.284503 1.54591 42.0496 20.9063 -5.23669 -39.3095 0.0 0.0 -0.0 0.0 -0.0 37.1572 25.01 -13.462 -3.5161 -0.128715 -0.524176 17.5005 29.389 3.01202 0.205597 -0.0 -0.0 0.0 0.0 0.0 
1288.26409199 697.581 -1483.67069395 5.89401885443 64.7272631348 -6.09337273751 -1.93186 -0.253961 -0.588865 -1.9317 -0.215976 -0.603831 -1.92916 -0.0627987 -0.63821 -1.92969 -0.162802 -0.620284 -10.6319 12.4811 6.70223 -10.6554 19.1291 9.73485 -0.0 0.0 -0.0 2.37135 7.43203 5.10606 11.7439 -12.7709 63.287 2.19249 -47.3571 0.961551 -85.1621 -8.47219 5.18057 -9.10902 29.7268 -41.4072 -0.0 0.0 -0.0 6.75028 29.0165 -11.3549 -24.9685 22.9784 -62.887 0.519968 14.4443 -0.0658918 25.4905 -0.18358 3.22428 0.211088 -28.7288 -12.4159 0.0 0.0 0.0 -20.9319 12.2001 13.4353 -15.3436 0.322029 2.3256 42.9068 22.9846 -5.37189 -38.4302 0.0 0.0 -0.0 0.0 -0.0 36.1049 25.9566 -13.5189 -17.0975 -0.3189 -2.59467 20.9615 30.813 3.60423 6.38063 -0.0 -0.0 0.0 0.0 0.0 
1257.35157166 696.9 -1489.9414942 8.22680820664 64.0423571338 -9.02959454817 -1.96968 0.0453992 -0.428275 -1.96958 0.0725592 -0.424518 -1.97005 0.173814 -0.394042 -1.97025 0.109402 -0.416547 -9.797 12.5961 6.17562 -9.8144 19.5392 9.12647 -0.0 0.0 -0.0 2.24701 7.36088 4.8793 9.52937 -11.4628 63.9553 2.0991 -46.1131 0.893545 -85.1404 -8.46948 5.18111 -8.83637 29.0438 -40.23 -0.0 0.0 -0.0 6.86821 29.4798 -11.5598 -24.3559 23.1513 -63.5398 0.515565 14.327 -0.0647977 24.6381 -0.200731 3.11674 0.12886 -28.573 -11.908 0.0 0.0 0.0 -21.0276 12.032 12.9941 -18.7835 0.308131 2.85313 42.172 23.1765 -5.31229 -37.3163 0.0 0.0 -0.0 0.0 -0.0 35.0298 26.1781 -13.441 -22.2563 -0.262015 -3.38392 20.9655 30.3564 3.58288 7.89811 -0.0 -0.0 0.0 0.0 0.0 
1229.47943583 699.665 -1495.40532422 9.93430998484 63.8827745345 -10.9899280128 -2.04551 0.164984 -0.257441 -2.0455 0.181032 -0.246421 -2.04629 0.235879 -0.194568 -2.04629 0.20219 -0.229379 -9.30058 12.5893 5.90576 -9.309 19.6158 8.78512 -0.0 0.0 -0.0 2.05537 6.66087 4.48538 7.18054 -10.8233 64.6499 1.90515 -43.3381 0.757019 -85.0948 -8.46378 5.18224 -8.50633 28.1277 -38.9036 -0.0 0.0 -0.0 7.12625 29.151 -12.1617 -21.9607 23.6059 -63.4715 0.503384 14.002 -0.0618172 23.769 -0.216566 3.00686 -0.0234993 -28.6045 -11.077 0.0 0.0 0.0 -20.4976 12.0554 12.1261 -20.9945 0.282492 3.19139 41.4446 23.3357 -5.25106 -36.3608 0.0 0.0 -0.0 0.0 -0.0 32.8837 26.0059 -12.4616 -25.9409 -0.178017 -3.94302 20.8483 30.7415 3.58375 8.84211 -0.0 -0.0 0.0 0.0 0.0 
1202.41683432 701.115 -1502.28310082 11.7262523447 64.0069456243 -13.1807225624 -2.2327 0.358611 0.058691 -2.23277 0.354149 0.0813916 -2.23231 0.322885 0.166709 -2.23218 0.345161 0.113622 -9.01443 12.6696 6.03584 -9.00786 19.6225 8.88488 -0.0 0.0 -0.0 1.90748 6.49825 4.20669 5.38222 -9.84012 65.2262 1.67131 -39.6187 0.602054 -84.9739 -8.44866 5.18522 -8.35561 27.8768 -38.0844 -0.0 0.0 -0.0 7.4441 29.8763 -12.773 -20.5005 24.0171 -63.6563 0.499002 13.8849 -0.0607614 23.2773 -0.224786 2.94459 -0.0949469 -28.4701 -10.6358 0.0 0.0 0.0 -19.7237 11.9537 11.0047 -22.598 0.25574 3.43599 41.3338 23.4305 -5.24378 -35.7704 0.0 0.0 -0.0 0.0 -0.0 30.863 25.6218 -12.1498 -28.5833 -0.0957154 -4.34017 20.4579 30.5625 3.51635 9.59532 -0.0 -0.0 0.0 0.0 0.0 
1202.97358723 701.115 -1505.56780005 11.2824483837 62.9180232061 -12.6846768101 -2.2327 0.358611 0.058691 -2.23277 0.354149 0.0813916 -2.23231 0.322885 0.166709 -2.23218 0.345161 0.113622 -9.01443 12.6696 6.03584 -9.00786 19.6225 8.88488 -0.0 0.0 -0.0 1.90748 6.49825 4.20669 5.38222 -9.84012 65.2262 1.67131 -39.6187 0.602054 -84.9739 -8.44866 5.18522 -8.35561 27.8768 -38.0844 -0.0 0.0 -0.0 7.4441 29.8763 -12.773 -20.5005 24.0171 -63.6563 0.499002 13.8849 -0.0607614 23.2773 -0.224786 2.94459 -0.0949469 -28.4701 -10.6358 0.0 0.0 0.0 -19.7237 11.9537 11.0047 -22.598 0.25574 3.43599 41.3338 23.4305 -5.24378 -35.7704 0.0 0.0 -0.0 0.0 -0.0 30.863 25.6218 -12.1498 -28.5833 -0.0957154 -4.34017 20.4579 30.5625 3.51635 9.59532 -0.0 -0.0 0.0 0.0 0.0 
1157.97050185 704.608 -1513.9657701 14.3950660858 63.0821608876 -16.5132980895 -2.36038 0.57446 0.736736 -2.36023 0.526417 0.771795 -2.35263 0.316679 0.878913 -2.35342 0.451508 0.817875 -10.1567 11.8769 4.70083 -10.228 19.238 7.58215 -0.0 0.0 -0.0 1.19649 5.75448 2.85681 0.898942 -8.94158 66.8993 1.39418 -34.6284 0.434638 -85.2488 -8.48302 5.1784 -7.87992 25.7359 -37.0487 -0.0 0.0 -0.0 7.72 29.3985 -13.4338 -12.8954 28.2467 -63.5135 0.467549 13.0405 -0.0534382 22.0939 -0.242377 2.79444 -0.0814829 -28.9832 -10.8911 0.0 0.0 0.0 -16.5458 12.107 9.34323 -26.3689 0.165932 4.00759 38.2819 25.765 -5.0242 -35.138 0.0 0.0 -0.0 0.0 -0.0 22.982 27.7805 -9.66919 -25.2106 -0.19752 -3.83265 17.7805 29.7956 3.07178 10.4787 -0.0 -0.0 0.0 0.0 0.0 
1159.43376124 704.608 -1521.32424324 13.4947274018 61.1643625782 -15.4949126757 -2.36038 0.57446 0.736736 -2.36023 0.526417 0.771795 -2.35263 0.316679 0.878913 -2.35342 0.451508 0.817875 -10.1567 11.8769 4.70083 -10.228 19.238 7.58215 -0.0 0.0 -0.0 1.19649 5.75448 2.85681 0.898942 -8.94158 66.8993 1.39418 -34.6284 0.434638 -85.2488 -8.48302 5.1784 -7.87992 25.7359 -37.0487 -0.0 0.0 -0.0 7.72 29.3985 -13.4338 -12.8954 28.2467 -63.5135 0.467549 13.0405 -0.0534382 22.0939 -0.242377 2.79444 -0.0814829 -28.9832 -10.8911 0.0 0.0 0.0 -16.5458 12.107 9.34323 -26.3689 0.165932 4.00759 38.2819 25.765 -5.0242 -35.138 0.0 0.0 -0.0 0.0 -0.0 22.982 27.7805 -9.66919 -25.2106 -0.19752 -3.83265 17.7805 29.7956 3.07178 10.4787 -0.0 -0.0 0.0 0.0 0.0 
1142.72849705 712.051 -1526.95574672 13.7313668134 60.957831923 -15.8186209679 -2.63255 0.489375 1.01507 -2.63207 0.423795 1.04415 -2.62342 0.143913 1.11765 -2.62502 0.318607 1.0809 -10.6392 11.5908 4.68882 -10.722 18.7809 7.57253 -0.0 0.0 -0.0 1.12188 5.64852 2.71126 -0.508778 -8.72129 67.7878 1.188 -30.4757 0.323627 -85.1792 -8.47432 5.18014 -8.08551 25.8113 -38.5144 -0.0 0.0 -0.0 8.31067 29.2015 -14.7549 -8.50415 29.7626 -63.2608 0.453598 12.6642 -0.0503351 21.9356 -0.244494 2.77434 -0.103494 -28.9629 -10.7633 0.0 0.0 0.0 -13.8186 12.3734 7.83912 -29.4847 0.0634564 4.47475 37.4397 25.7642 -4.939 -35.2138 0.0 0.0 -0.0 0.0 -0.0 21.4045 28.1079 -9.48131 -26.1758 -0.171444 -3.97847 15.824 28.3289 2.71087 10.1845 -0.0 -0.0 0.0 0.0 0.0 
1145.59238293 712.051 -1538.32219388 12.6224587494 58.1757488329 -14.5329061036 -2.63255 0.489375 1.01507 -2.63207 0.423795 1.04415 -2.62342 0.143913 1.11765 -2.62502 0.318607 1.0809 -10.6392 11.5908 4.68882 -10.722 18.7809 7.57253 -0.0 0.0 -0.0 1.12188 5.64852 2.71126 -0.508778 -8.72129 67.7878 1.188 -30.4757 0.323627 -85.1792 -8.47432 5.18014 -8.08551 25.8113 -38.5144 -0.0 0.0 -0.0 8.31067 29.2015 -14.7549 -8.50415 29.7626 -63.2608 0.453598 12.6642 -0.0503351 21.9356 -0.244494 2.77434 -0.103494 -28.9629 -10.7633 0.0 0.0 0.0 -13.8186 12.3734 7.83912 -29.4847 0.0634564 4.47475 37.4397 25.7642 -4.939 -35.2138 0.0 0.0 -0.0 0.0 -0.0 21.4045 28.1079 -9.48131 -26.1758 -0.171444 -3.97847 15.824 28.3289 2.71087 10.1845 -0.0 -0.0 0.0 0.0 0.0 
1113.33919364 720.057 -1543.98086992 14.910099229 59.8432526792 -16.4555872342 -2.8863 0.401608 1.20567 -2.88555 0.32408 1.22878 -2.87735 -0.00518916 1.27078 -2.87955 0.195556 1.25565 -11.5647 10.7105 3.95232 -11.6793 17.7282 6.77038 -0.0 0.0 -0.0 1.37678 3.91606 3.0175 -3.40203 -8.30314 69.3965 0.762862 -20.7015 0.139336 -84.6916 -8.41335 5.19206 -8.11224 25.6787 -38.8751 -0.0 0.0 -0.0 8.60884 29.2115 -15.4106 -2.49605 32.2943 -61.7098 0.440665 12.3143 -0.0475382 21.2687 -0.252805 2.68956 -0.0926332 -28.7822 -10.759 0.0 0.0 0.0 -8.38006 12.8887 5.02816 -36.0419 -0.234343 5.43623 36.097 24.6251 -4.76637 -35.2945 0.0 0.0 -0.0 0.0 -0.0 18.2695 28.0488 -9.2221 -27.5781 -0.129185 -4.18952 13.9758 24.5465 2.31143 10.1387 -0.0 -0.0 0.0 0.0 0.0 
1117.61659934 720.057 -1558.42446616 13.6240233816 56.7178745022 -14.9442688774 -2.8863 0.401608 1.20567 -2.88555 0.32408 1.22878 -2.87735 -0.00518916 1.27078 -2.87955 0.195556 1.25565 -11.5647 10.7105 3.95232 -11.6793 17.7282 6.77038 -0.0 0.0 -0.0 1.37678 3.91606 3.0175 -3.40203 -8.30314 69.3965 0.762862 -20.7015 0.139336 -84.6916 -8.41335 5.19206 -8.11224 25.6787 -38.8751 -0.0 0.0 -0.0 8.60884 29.2115 -15.4106 -2.49605 32.2943 -61.7098 0.440665 12.3143 -0.0475382 21.2687 -0.252805 2.68956 -0.0926332 -28.7822 -10.759 0.0 0.0 0.0 -8.38006 12.8887 5.02816 -36.0419 -0.234343 5.43623 36.097 24.6251 -4.76637 -35.2945 0.0 0.0 -0.0 0.0 -0.0 18.2695 28.0488 -9.2221 -27.5781 -0.129185 -4.18952 13.9758 24.5465 2.31143 10.1387 -0.0 -0.0 0.0 0.0 0.0 
